solid OpenSCAD_Model
  facet normal 0 0 -1
    outer loop
      vertex 73.763 -141.381 0
      vertex 22 -88.9119 0
      vertex 73.763 6.14466 0
    endloop
  endfacet
  facet normal 0 0 -1
    outer loop
      vertex 73.763 -141.381 0
      vertex 21 -90.644 0
      vertex 22 -88.9119 0
    endloop
  endfacet
  facet normal 0 0 -1
    outer loop
      vertex 73.763 -141.381 0
      vertex -21 -90.644 0
      vertex 21 -90.644 0
    endloop
  endfacet
  facet normal -0 0 -1
    outer loop
      vertex -22 -88.9119 0
      vertex -73.763 -141.381 0
      vertex -22 -46.3248 0
    endloop
  endfacet
  facet normal -0 0 -1
    outer loop
      vertex -21 -90.644 0
      vertex -73.763 -141.381 0
      vertex -22 -88.9119 0
    endloop
  endfacet
  facet normal 0 0 -1
    outer loop
      vertex -73.763 -141.381 0
      vertex -21 -90.644 0
      vertex 73.763 -141.381 0
    endloop
  endfacet
  facet normal 0 0 -1
    outer loop
      vertex 22 -46.3248 0
      vertex 73.763 6.14466 0
      vertex 22 -88.9119 0
    endloop
  endfacet
  facet normal 0 0 -1
    outer loop
      vertex 21 -44.5928 0
      vertex 73.763 6.14466 0
      vertex 22 -46.3248 0
    endloop
  endfacet
  facet normal 0 0 -1
    outer loop
      vertex -21 -44.5928 0
      vertex 73.763 6.14466 0
      vertex 21 -44.5928 0
    endloop
  endfacet
  facet normal 0 0 -1
    outer loop
      vertex -21 -44.5928 0
      vertex -73.763 6.14466 0
      vertex 73.763 6.14466 0
    endloop
  endfacet
  facet normal 0 0 -1
    outer loop
      vertex -22 -46.3248 0
      vertex -73.763 6.14466 0
      vertex -21 -44.5928 0
    endloop
  endfacet
  facet normal 0 0 -1
    outer loop
      vertex -73.763 6.14466 0
      vertex -22 -46.3248 0
      vertex -73.763 -141.381 0
    endloop
  endfacet
  facet normal -1 0 0
    outer loop
      vertex 5 -79.3248 29.7487
      vertex 5 -78.7248 33.033
      vertex 5 -78.7248 29.7487
    endloop
  endfacet
  facet normal -1 -0 0
    outer loop
      vertex 5 -78.7248 33.033
      vertex 5 -79.3248 29.7487
      vertex 5 -79.3248 33.033
    endloop
  endfacet
  facet normal 0 0 1
    outer loop
      vertex 45 -67.8248 33.5
      vertex 40.8223 -78.7248 33.5
      vertex 45 -78.7248 33.5
    endloop
  endfacet
  facet normal 0 0 1
    outer loop
      vertex 40.8223 -78.7248 33.5
      vertex 33.7513 -78.7248 33.5
      vertex 40.8223 -79.3248 33.5
    endloop
  endfacet
  facet normal 0 0 1
    outer loop
      vertex 45 -67.8248 33.5
      vertex 33.7513 -78.7248 33.5
      vertex 40.8223 -78.7248 33.5
    endloop
  endfacet
  facet normal 0 0 1
    outer loop
      vertex 45 -67.8248 33.5
      vertex 26.6802 -78.7248 33.5
      vertex 33.7513 -78.7248 33.5
    endloop
  endfacet
  facet normal 0 0 1
    outer loop
      vertex 26.6802 -78.7248 33.5
      vertex 19.6091 -78.7248 33.5
      vertex 26.6802 -79.3248 33.5
    endloop
  endfacet
  facet normal 0 0 1
    outer loop
      vertex 45 -67.8248 33.5
      vertex 19.6091 -78.7248 33.5
      vertex 26.6802 -78.7248 33.5
    endloop
  endfacet
  facet normal 0 0 1
    outer loop
      vertex 45 -67.8248 33.5
      vertex 15.8223 -78.7248 33.5
      vertex 19.6091 -78.7248 33.5
    endloop
  endfacet
  facet normal 0 0 1
    outer loop
      vertex 15.8223 -78.7248 33.5
      vertex 5.46699 -78.7248 33.5
      vertex 15.8223 -79.3248 33.5
    endloop
  endfacet
  facet normal 0 0 1
    outer loop
      vertex 45 -67.8248 33.5
      vertex 5.46699 -78.7248 33.5
      vertex 15.8223 -78.7248 33.5
    endloop
  endfacet
  facet normal 0 0 1
    outer loop
      vertex 45 -67.8248 33.5
      vertex 1.68019 -78.7248 33.5
      vertex 5.46699 -78.7248 33.5
    endloop
  endfacet
  facet normal 0 0 1
    outer loop
      vertex 1.68019 -78.7248 33.5
      vertex -5.39087 -78.7248 33.5
      vertex 1.68019 -79.3248 33.5
    endloop
  endfacet
  facet normal -0 0 1
    outer loop
      vertex -45 -67.8248 33.5
      vertex 1.68019 -78.7248 33.5
      vertex 45 -67.8248 33.5
    endloop
  endfacet
  facet normal 0 0 1
    outer loop
      vertex 1.68019 -78.7248 33.5
      vertex -45 -67.8248 33.5
      vertex -5.39087 -78.7248 33.5
    endloop
  endfacet
  facet normal 0 0 1
    outer loop
      vertex -9.17767 -78.7248 33.5
      vertex -19.533 -78.7248 33.5
      vertex -9.17767 -79.3248 33.5
    endloop
  endfacet
  facet normal 0 0 1
    outer loop
      vertex -5.39087 -78.7248 33.5
      vertex -45 -67.8248 33.5
      vertex -9.17767 -78.7248 33.5
    endloop
  endfacet
  facet normal 0 0 1
    outer loop
      vertex -9.17767 -78.7248 33.5
      vertex -45 -67.8248 33.5
      vertex -19.533 -78.7248 33.5
    endloop
  endfacet
  facet normal 0 0 1
    outer loop
      vertex -23.3198 -78.7248 33.5
      vertex -30.3909 -78.7248 33.5
      vertex -23.3198 -79.3248 33.5
    endloop
  endfacet
  facet normal 0 0 1
    outer loop
      vertex -19.533 -78.7248 33.5
      vertex -45 -67.8248 33.5
      vertex -23.3198 -78.7248 33.5
    endloop
  endfacet
  facet normal 0 0 1
    outer loop
      vertex -23.3198 -78.7248 33.5
      vertex -45 -67.8248 33.5
      vertex -30.3909 -78.7248 33.5
    endloop
  endfacet
  facet normal 0 0 1
    outer loop
      vertex -37.4619 -78.7248 33.5
      vertex -44.533 -78.7248 33.5
      vertex -37.4619 -79.3248 33.5
    endloop
  endfacet
  facet normal 0 0 1
    outer loop
      vertex -30.3909 -78.7248 33.5
      vertex -45 -67.8248 33.5
      vertex -37.4619 -78.7248 33.5
    endloop
  endfacet
  facet normal 0 0 1
    outer loop
      vertex -37.4619 -78.7248 33.5
      vertex -45 -67.8248 33.5
      vertex -44.533 -78.7248 33.5
    endloop
  endfacet
  facet normal 0 0 1
    outer loop
      vertex -44.533 -78.7248 33.5
      vertex -45 -67.8248 33.5
      vertex -45 -78.7248 33.5
    endloop
  endfacet
  facet normal 0 0 1
    outer loop
      vertex 40.8223 -79.3248 33.5
      vertex 33.7513 -78.7248 33.5
      vertex 33.7513 -79.3248 33.5
    endloop
  endfacet
  facet normal 0 0 1
    outer loop
      vertex 26.6802 -79.3248 33.5
      vertex 19.6091 -78.7248 33.5
      vertex 19.6091 -79.3248 33.5
    endloop
  endfacet
  facet normal 0 0 1
    outer loop
      vertex 15.8223 -79.3248 33.5
      vertex 5.46699 -78.7248 33.5
      vertex 5.46699 -79.3248 33.5
    endloop
  endfacet
  facet normal 0 0 1
    outer loop
      vertex 1.68019 -79.3248 33.5
      vertex -5.39087 -78.7248 33.5
      vertex -5.39087 -79.3248 33.5
    endloop
  endfacet
  facet normal 0 0 1
    outer loop
      vertex -9.17767 -79.3248 33.5
      vertex -19.533 -78.7248 33.5
      vertex -19.533 -79.3248 33.5
    endloop
  endfacet
  facet normal 0 0 1
    outer loop
      vertex -23.3198 -79.3248 33.5
      vertex -30.3909 -78.7248 33.5
      vertex -30.3909 -79.3248 33.5
    endloop
  endfacet
  facet normal 0 0 1
    outer loop
      vertex -37.4619 -79.3248 33.5
      vertex -44.533 -78.7248 33.5
      vertex -44.533 -79.3248 33.5
    endloop
  endfacet
  facet normal 1 -0 0
    outer loop
      vertex 45 -79.3248 30.6066
      vertex 45 -78.7248 23.5355
      vertex 45 -78.7248 30.6066
    endloop
  endfacet
  facet normal 1 0 0
    outer loop
      vertex 45 -78.7248 23.5355
      vertex 45 -79.3248 30.6066
      vertex 45 -79.3248 23.5355
    endloop
  endfacet
  facet normal 1 0 0
    outer loop
      vertex 45 -78.7248 30.6066
      vertex 45 -67.8248 33.5
      vertex 45 -78.7248 33.5
    endloop
  endfacet
  facet normal 1 0 0
    outer loop
      vertex 45 -78.7248 23.5355
      vertex 45 -67.8248 33.5
      vertex 45 -78.7248 30.6066
    endloop
  endfacet
  facet normal 1 0 0
    outer loop
      vertex 45 -67.8248 33.5
      vertex 45 -78.7248 23.5355
      vertex 45 -71.3248 15
    endloop
  endfacet
  facet normal 1 0 0
    outer loop
      vertex 45 -71.3248 15
      vertex 45 -78.7248 23.5355
      vertex 45 -78.7248 22.4
    endloop
  endfacet
  facet normal 1 -0 0
    outer loop
      vertex 45 -71.3248 15
      vertex 45 -46.3248 12
      vertex 45 -67.8248 33.5
    endloop
  endfacet
  facet normal 1 0 0
    outer loop
      vertex 45 -71.3248 10.5
      vertex 45 -46.3248 12
      vertex 45 -71.3248 15
    endloop
  endfacet
  facet normal 1 0 0
    outer loop
      vertex 45 -46.3248 12
      vertex 45 -71.3248 10.5
      vertex 45 -46.3248 10.5
    endloop
  endfacet
  facet normal 0 -1 0
    outer loop
      vertex 5 -79.3248 29.7487
      vertex 5.46699 -79.3248 33.5
      vertex 5 -79.3248 33.033
    endloop
  endfacet
  facet normal 0 -1 -0
    outer loop
      vertex 5.46699 -79.3248 33.5
      vertex 5 -79.3248 29.7487
      vertex 15.8223 -79.3248 33.5
    endloop
  endfacet
  facet normal 0 -1 0
    outer loop
      vertex 6.32233 -79.3248 24
      vertex 5 -79.3248 29.7487
      vertex -0.748737 -79.3248 24
    endloop
  endfacet
  facet normal 0 -1 0
    outer loop
      vertex 5 -79.3248 29.7487
      vertex 6.32233 -79.3248 24
      vertex 15.8223 -79.3248 33.5
    endloop
  endfacet
  facet normal 0 -1 0
    outer loop
      vertex 19.6091 -79.3248 33.5
      vertex 20 -79.3248 26.8198
      vertex 26.6802 -79.3248 33.5
    endloop
  endfacet
  facet normal 0 -1 0
    outer loop
      vertex 10.1091 -79.3248 24
      vertex 20 -79.3248 26.8198
      vertex 19.6091 -79.3248 33.5
    endloop
  endfacet
  facet normal 0 -1 -0
    outer loop
      vertex 20 -79.3248 26.8198
      vertex 10.1091 -79.3248 24
      vertex 20 -79.3248 24
    endloop
  endfacet
  facet normal 0 -1 0
    outer loop
      vertex 30.3223 -79.3248 23
      vertex 33.7513 -79.3248 33.5
      vertex 23.2513 -79.3248 23
    endloop
  endfacet
  facet normal 0 -1 -0
    outer loop
      vertex 33.7513 -79.3248 33.5
      vertex 30.3223 -79.3248 23
      vertex 40.8223 -79.3248 33.5
    endloop
  endfacet
  facet normal 0 -1 0
    outer loop
      vertex 37.3934 -79.3248 23
      vertex 45 -79.3248 23.5355
      vertex 45 -79.3248 30.6066
    endloop
  endfacet
  facet normal 0 -1 0
    outer loop
      vertex 45 -79.3248 23.5355
      vertex 37.3934 -79.3248 23
      vertex 44.4645 -79.3248 23
    endloop
  endfacet
  facet normal 0 1 -0
    outer loop
      vertex -22 -46.3248 10.5
      vertex -45 -46.3248 12
      vertex -22 -46.3248 12
    endloop
  endfacet
  facet normal 0 1 0
    outer loop
      vertex -45 -46.3248 12
      vertex -22 -46.3248 10.5
      vertex -45 -46.3248 10.5
    endloop
  endfacet
  facet normal 0 1 -0
    outer loop
      vertex 45 -46.3248 10.5
      vertex 22 -46.3248 12
      vertex 45 -46.3248 12
    endloop
  endfacet
  facet normal 0 1 0
    outer loop
      vertex 22 -46.3248 12
      vertex 45 -46.3248 10.5
      vertex 22 -46.3248 10.5
    endloop
  endfacet
  facet normal 0 1 -0
    outer loop
      vertex 1 -46.3248 9
      vertex -1 -46.3248 10
      vertex 1 -46.3248 10
    endloop
  endfacet
  facet normal 0 1 0
    outer loop
      vertex -1 -46.3248 10
      vertex 1 -46.3248 9
      vertex -1 -46.3248 9
    endloop
  endfacet
  facet normal 0 1 0
    outer loop
      vertex 1 -46.3248 10
      vertex 15.675 -46.3248 12
      vertex 15.675 -46.3248 10
    endloop
  endfacet
  facet normal 0 1 0
    outer loop
      vertex 15.675 -46.3248 12
      vertex 1 -46.3248 10
      vertex -15.675 -46.3248 12
    endloop
  endfacet
  facet normal 0 1 -0
    outer loop
      vertex -1 -46.3248 10
      vertex -15.675 -46.3248 12
      vertex 1 -46.3248 10
    endloop
  endfacet
  facet normal 0 1 0
    outer loop
      vertex -15.675 -46.3248 12
      vertex -1 -46.3248 10
      vertex -15.675 -46.3248 10
    endloop
  endfacet
  facet normal 0 -0.707107 -0.707107
    outer loop
      vertex -45 -71.3248 15
      vertex -41.4909 -78.7248 22.4
      vertex -45 -78.7248 22.4
    endloop
  endfacet
  facet normal 0 -0.707107 -0.707107
    outer loop
      vertex -41.4909 -78.7248 22.4
      vertex -45 -71.3248 15
      vertex -34.4198 -78.7248 22.4
    endloop
  endfacet
  facet normal -0 -0.707107 -0.707107
    outer loop
      vertex -22 -71.3248 15
      vertex -34.4198 -78.7248 22.4
      vertex -45 -71.3248 15
    endloop
  endfacet
  facet normal -0 -0.707103 -0.70711
    outer loop
      vertex -34.4198 -78.7248 22.4
      vertex -40.8909 -79.3248 23
      vertex -41.4909 -78.7248 22.4
    endloop
  endfacet
  facet normal 0 -0.707103 -0.70711
    outer loop
      vertex -40.8909 -79.3248 23
      vertex -34.4198 -78.7248 22.4
      vertex -33.8198 -79.3248 23
    endloop
  endfacet
  facet normal 0 -0.707103 -0.70711
    outer loop
      vertex -27.3487 -78.7248 22.4
      vertex -22 -79.3248 23
      vertex -26.7487 -79.3248 23
    endloop
  endfacet
  facet normal 0 -0.707107 -0.707107
    outer loop
      vertex -34.4198 -78.7248 22.4
      vertex -22 -71.3248 15
      vertex -27.3487 -78.7248 22.4
    endloop
  endfacet
  facet normal -7.56458e-07 -0.707107 -0.707107
    outer loop
      vertex -27.3487 -78.7248 22.4
      vertex -22 -71.3248 15
      vertex -22 -79.3248 23
    endloop
  endfacet
  facet normal 0 -0.707107 -0.707107
    outer loop
      vertex 22 -71.3248 15
      vertex 22.6513 -78.7248 22.4
      vertex 22 -78.7248 22.4
    endloop
  endfacet
  facet normal 0 -0.707107 -0.707107
    outer loop
      vertex 22.6513 -78.7248 22.4
      vertex 22 -71.3248 15
      vertex 29.7223 -78.7248 22.4
    endloop
  endfacet
  facet normal 0 -0.707107 -0.707107
    outer loop
      vertex 29.7223 -78.7248 22.4
      vertex 22 -71.3248 15
      vertex 36.7934 -78.7248 22.4
    endloop
  endfacet
  facet normal -0 -0.707107 -0.707107
    outer loop
      vertex 45 -71.3248 15
      vertex 36.7934 -78.7248 22.4
      vertex 22 -71.3248 15
    endloop
  endfacet
  facet normal 0 -0.707107 -0.707107
    outer loop
      vertex 36.7934 -78.7248 22.4
      vertex 45 -71.3248 15
      vertex 43.8645 -78.7248 22.4
    endloop
  endfacet
  facet normal 0 -0.707107 -0.707107
    outer loop
      vertex 43.8645 -78.7248 22.4
      vertex 45 -71.3248 15
      vertex 45 -78.7248 22.4
    endloop
  endfacet
  facet normal -0 -0.707103 -0.70711
    outer loop
      vertex 29.7223 -78.7248 22.4
      vertex 23.2513 -79.3248 23
      vertex 22.6513 -78.7248 22.4
    endloop
  endfacet
  facet normal 0 -0.707103 -0.70711
    outer loop
      vertex 23.2513 -79.3248 23
      vertex 29.7223 -78.7248 22.4
      vertex 30.3223 -79.3248 23
    endloop
  endfacet
  facet normal -0 -0.707103 -0.70711
    outer loop
      vertex 43.8645 -78.7248 22.4
      vertex 37.3934 -79.3248 23
      vertex 36.7934 -78.7248 22.4
    endloop
  endfacet
  facet normal 0 -0.707103 -0.70711
    outer loop
      vertex 37.3934 -79.3248 23
      vertex 43.8645 -78.7248 22.4
      vertex 44.4645 -79.3248 23
    endloop
  endfacet
  facet normal 0 -0.707107 -0.707107
    outer loop
      vertex -15.675 -71.3248 15
      vertex 15.675 -78.3248 22
      vertex -15.675 -78.3248 22
    endloop
  endfacet
  facet normal 0 -0.707107 -0.707107
    outer loop
      vertex 15.675 -78.3248 22
      vertex -15.675 -71.3248 15
      vertex 15.675 -71.3248 15
    endloop
  endfacet
  facet normal 0 -1 0
    outer loop
      vertex -45 -71.3248 10.5
      vertex -22 -71.3248 15
      vertex -45 -71.3248 15
    endloop
  endfacet
  facet normal 0 -1 -0
    outer loop
      vertex -22 -71.3248 15
      vertex -45 -71.3248 10.5
      vertex -22 -71.3248 10.5
    endloop
  endfacet
  facet normal 0 -1 0
    outer loop
      vertex 22 -71.3248 10.5
      vertex 45 -71.3248 15
      vertex 22 -71.3248 15
    endloop
  endfacet
  facet normal 0 -1 -0
    outer loop
      vertex 45 -71.3248 15
      vertex 22 -71.3248 10.5
      vertex 45 -71.3248 10.5
    endloop
  endfacet
  facet normal 0 -1 0
    outer loop
      vertex -15.675 -71.3248 10
      vertex 15.675 -71.3248 15
      vertex -15.675 -71.3248 15
    endloop
  endfacet
  facet normal 0 -1 -0
    outer loop
      vertex 15.675 -71.3248 15
      vertex -15.675 -71.3248 10
      vertex 15.675 -71.3248 10
    endloop
  endfacet
  facet normal -0.707107 0 0.707107
    outer loop
      vertex 5 -79.3248 33.033
      vertex 5.46699 -78.7248 33.5
      vertex 5 -78.7248 33.033
    endloop
  endfacet
  facet normal -0.707107 0 0.707107
    outer loop
      vertex 5.46699 -78.7248 33.5
      vertex 5 -79.3248 33.033
      vertex 5.46699 -79.3248 33.5
    endloop
  endfacet
  facet normal 0 -1 0
    outer loop
      vertex 1.68019 -78.7248 33.5
      vertex 5 -78.7248 33.033
      vertex 5.46699 -78.7248 33.5
    endloop
  endfacet
  facet normal 0 -1 0
    outer loop
      vertex 1.68019 -78.7248 33.5
      vertex 5 -78.7248 29.7487
      vertex 5 -78.7248 33.033
    endloop
  endfacet
  facet normal 0 -1 0
    outer loop
      vertex -0.748737 -78.7248 24
      vertex 1.68019 -78.7248 33.5
      vertex -5 -78.7248 26.8198
    endloop
  endfacet
  facet normal 0 -1 0
    outer loop
      vertex -0.748737 -78.7248 24
      vertex -5 -78.7248 26.8198
      vertex -5 -78.7248 24
    endloop
  endfacet
  facet normal 0 -1 -0
    outer loop
      vertex 1.68019 -78.7248 33.5
      vertex -0.748737 -78.7248 24
      vertex 5 -78.7248 29.7487
    endloop
  endfacet
  facet normal -0.707107 0 0.707107
    outer loop
      vertex 10.1091 -79.3248 24
      vertex 19.6091 -78.7248 33.5
      vertex 10.1091 -78.7248 24
    endloop
  endfacet
  facet normal -0.707107 0 0.707107
    outer loop
      vertex 19.6091 -78.7248 33.5
      vertex 10.1091 -79.3248 24
      vertex 19.6091 -79.3248 33.5
    endloop
  endfacet
  facet normal 0 -1 0
    outer loop
      vertex 10.1091 -78.7248 24
      vertex 15.8223 -78.7248 33.5
      vertex 6.32233 -78.7248 24
    endloop
  endfacet
  facet normal 0 -1 -0
    outer loop
      vertex 15.8223 -78.7248 33.5
      vertex 10.1091 -78.7248 24
      vertex 19.6091 -78.7248 33.5
    endloop
  endfacet
  facet normal 0.707107 0 -0.707107
    outer loop
      vertex 26.6802 -79.3248 33.5
      vertex 20 -78.7248 26.8198
      vertex 26.6802 -78.7248 33.5
    endloop
  endfacet
  facet normal 0.707107 0 -0.707107
    outer loop
      vertex 20 -78.7248 26.8198
      vertex 26.6802 -79.3248 33.5
      vertex 20 -79.3248 26.8198
    endloop
  endfacet
  facet normal -0.707107 0 0.707107
    outer loop
      vertex 23.2513 -79.3248 23
      vertex 33.7513 -78.7248 33.5
      vertex 22.6513 -78.7248 22.4
    endloop
  endfacet
  facet normal -0.707107 0 0.707107
    outer loop
      vertex 33.7513 -78.7248 33.5
      vertex 23.2513 -79.3248 23
      vertex 33.7513 -79.3248 33.5
    endloop
  endfacet
  facet normal 0 -1 0
    outer loop
      vertex 22 -78.7248 24
      vertex 26.6802 -78.7248 33.5
      vertex 20 -78.7248 26.8198
    endloop
  endfacet
  facet normal 0 -1 0
    outer loop
      vertex 22 -78.7248 24
      vertex 20 -78.7248 26.8198
      vertex 20 -78.7248 24
    endloop
  endfacet
  facet normal 0 -1 0
    outer loop
      vertex 22.6513 -78.7248 22.4
      vertex 26.6802 -78.7248 33.5
      vertex 22 -78.7248 24
    endloop
  endfacet
  facet normal 0 -1 0
    outer loop
      vertex 22.6513 -78.7248 22.4
      vertex 22 -78.7248 24
      vertex 22 -78.7248 22.4
    endloop
  endfacet
  facet normal 0 -1 -0
    outer loop
      vertex 26.6802 -78.7248 33.5
      vertex 22.6513 -78.7248 22.4
      vertex 33.7513 -78.7248 33.5
    endloop
  endfacet
  facet normal 0.707107 0 -0.707107
    outer loop
      vertex 30.3223 -79.3248 23
      vertex 40.8223 -78.7248 33.5
      vertex 40.8223 -79.3248 33.5
    endloop
  endfacet
  facet normal 0.707107 0 -0.707107
    outer loop
      vertex 40.8223 -78.7248 33.5
      vertex 30.3223 -79.3248 23
      vertex 29.7223 -78.7248 22.4
    endloop
  endfacet
  facet normal -0.707107 0 0.707107
    outer loop
      vertex 45 -78.7248 30.6066
      vertex 37.3934 -79.3248 23
      vertex 45 -79.3248 30.6066
    endloop
  endfacet
  facet normal -0.707107 -2.08347e-06 0.707107
    outer loop
      vertex 37.3934 -79.3248 23
      vertex 45 -78.7248 30.6066
      vertex 36.7934 -78.7248 22.4
    endloop
  endfacet
  facet normal 0 -1 0
    outer loop
      vertex 40.8223 -78.7248 33.5
      vertex 45 -78.7248 30.6066
      vertex 45 -78.7248 33.5
    endloop
  endfacet
  facet normal 0 -1 0
    outer loop
      vertex 36.7934 -78.7248 22.4
      vertex 40.8223 -78.7248 33.5
      vertex 29.7223 -78.7248 22.4
    endloop
  endfacet
  facet normal 0 -1 -0
    outer loop
      vertex 40.8223 -78.7248 33.5
      vertex 36.7934 -78.7248 22.4
      vertex 45 -78.7248 30.6066
    endloop
  endfacet
  facet normal 0.707107 0 -0.707107
    outer loop
      vertex 44.4645 -79.3248 23
      vertex 45 -78.7248 23.5355
      vertex 45 -79.3248 23.5355
    endloop
  endfacet
  facet normal 0.707106 1.0601e-06 -0.707107
    outer loop
      vertex 45 -78.7248 23.5355
      vertex 44.4645 -79.3248 23
      vertex 43.8645 -78.7248 22.4
    endloop
  endfacet
  facet normal 0 -1 0
    outer loop
      vertex 45 -78.7248 22.4
      vertex 45 -78.7248 23.5355
      vertex 43.8645 -78.7248 22.4
    endloop
  endfacet
  facet normal 0 0.707107 0.707107
    outer loop
      vertex -22 -46.3248 12
      vertex -45 -46.3248 12
      vertex -22 -58.3248 24
    endloop
  endfacet
  facet normal 0 0.707107 0.707107
    outer loop
      vertex 22 -58.3248 24
      vertex 45 -46.3248 12
      vertex 22 -46.3248 12
    endloop
  endfacet
  facet normal 6.54576e-08 0.707107 0.707107
    outer loop
      vertex 45 -46.3248 12
      vertex 22 -58.3248 24
      vertex 45 -67.8248 33.5
    endloop
  endfacet
  facet normal -0 0.707107 0.707107
    outer loop
      vertex -22 -58.3248 24
      vertex 45 -67.8248 33.5
      vertex 22 -58.3248 24
    endloop
  endfacet
  facet normal 0 0.707107 0.707107
    outer loop
      vertex -22 -58.3248 24
      vertex -45 -67.8248 33.5
      vertex 45 -67.8248 33.5
    endloop
  endfacet
  facet normal -6.54576e-08 0.707107 0.707107
    outer loop
      vertex -45 -67.8248 33.5
      vertex -22 -58.3248 24
      vertex -45 -46.3248 12
    endloop
  endfacet
  facet normal 0 0.707107 0.707107
    outer loop
      vertex 15.675 -46.3248 12
      vertex -15.675 -56.3248 22
      vertex 15.675 -56.3248 22
    endloop
  endfacet
  facet normal 0 0.707107 0.707107
    outer loop
      vertex -15.675 -56.3248 22
      vertex 15.675 -46.3248 12
      vertex -15.675 -46.3248 12
    endloop
  endfacet
  facet normal -1 0 0
    outer loop
      vertex -45 -79.3248 25.9619
      vertex -45 -78.7248 33.033
      vertex -45 -78.7248 25.9619
    endloop
  endfacet
  facet normal -1 -0 0
    outer loop
      vertex -45 -78.7248 33.033
      vertex -45 -79.3248 25.9619
      vertex -45 -79.3248 33.033
    endloop
  endfacet
  facet normal -1 0 0
    outer loop
      vertex -45 -71.3248 10.5
      vertex -45 -46.3248 12
      vertex -45 -46.3248 10.5
    endloop
  endfacet
  facet normal -1 -0 0
    outer loop
      vertex -45 -46.3248 12
      vertex -45 -71.3248 10.5
      vertex -45 -71.3248 15
    endloop
  endfacet
  facet normal -1 0 0
    outer loop
      vertex -45 -46.3248 12
      vertex -45 -71.3248 15
      vertex -45 -67.8248 33.5
    endloop
  endfacet
  facet normal -1 0 0
    outer loop
      vertex -45 -78.7248 22.4
      vertex -45 -67.8248 33.5
      vertex -45 -71.3248 15
    endloop
  endfacet
  facet normal -1 0 0
    outer loop
      vertex -45 -78.7248 25.9619
      vertex -45 -67.8248 33.5
      vertex -45 -78.7248 22.4
    endloop
  endfacet
  facet normal -1 0 0
    outer loop
      vertex -45 -78.7248 33.033
      vertex -45 -67.8248 33.5
      vertex -45 -78.7248 25.9619
    endloop
  endfacet
  facet normal -1 -0 0
    outer loop
      vertex -45 -67.8248 33.5
      vertex -45 -78.7248 33.033
      vertex -45 -78.7248 33.5
    endloop
  endfacet
  facet normal 1 -0 0
    outer loop
      vertex -5 -79.3248 26.8198
      vertex -5 -78.7248 24
      vertex -5 -78.7248 26.8198
    endloop
  endfacet
  facet normal 1 0 0
    outer loop
      vertex -5 -78.7248 24
      vertex -5 -79.3248 26.8198
      vertex -5 -79.3248 24
    endloop
  endfacet
  facet normal 0 -1 0
    outer loop
      vertex -45 -79.3248 33.033
      vertex -37.4619 -79.3248 33.5
      vertex -44.533 -79.3248 33.5
    endloop
  endfacet
  facet normal 0 -1 0
    outer loop
      vertex -37.4619 -79.3248 33.5
      vertex -45 -79.3248 33.033
      vertex -45 -79.3248 25.9619
    endloop
  endfacet
  facet normal 0 -1 0
    outer loop
      vertex -33.8198 -79.3248 23
      vertex -30.3909 -79.3248 33.5
      vertex -40.8909 -79.3248 23
    endloop
  endfacet
  facet normal 0 -1 -0
    outer loop
      vertex -30.3909 -79.3248 33.5
      vertex -33.8198 -79.3248 23
      vertex -23.3198 -79.3248 33.5
    endloop
  endfacet
  facet normal 0 -1 0
    outer loop
      vertex -26.7487 -79.3248 23
      vertex -22 -79.3248 24
      vertex -20 -79.3248 29.7487
    endloop
  endfacet
  facet normal 0 -1 -0
    outer loop
      vertex -22 -79.3248 24
      vertex -26.7487 -79.3248 23
      vertex -22 -79.3248 23
    endloop
  endfacet
  facet normal 0 -1 0
    outer loop
      vertex -20 -79.3248 29.7487
      vertex -19.533 -79.3248 33.5
      vertex -20 -79.3248 33.033
    endloop
  endfacet
  facet normal 0 -1 -0
    outer loop
      vertex -19.533 -79.3248 33.5
      vertex -20 -79.3248 29.7487
      vertex -9.17767 -79.3248 33.5
    endloop
  endfacet
  facet normal 0 -1 0
    outer loop
      vertex -18.6777 -79.3248 24
      vertex -20 -79.3248 29.7487
      vertex -22 -79.3248 24
    endloop
  endfacet
  facet normal 0 -1 0
    outer loop
      vertex -20 -79.3248 29.7487
      vertex -18.6777 -79.3248 24
      vertex -9.17767 -79.3248 33.5
    endloop
  endfacet
  facet normal 0 -1 0
    outer loop
      vertex -5.39087 -79.3248 33.5
      vertex -5 -79.3248 26.8198
      vertex 1.68019 -79.3248 33.5
    endloop
  endfacet
  facet normal 0 -1 0
    outer loop
      vertex -14.8909 -79.3248 24
      vertex -5 -79.3248 26.8198
      vertex -5.39087 -79.3248 33.5
    endloop
  endfacet
  facet normal 0 -1 -0
    outer loop
      vertex -5 -79.3248 26.8198
      vertex -14.8909 -79.3248 24
      vertex -5 -79.3248 24
    endloop
  endfacet
  facet normal -0.707107 0 0.707107
    outer loop
      vertex -45 -79.3248 33.033
      vertex -44.533 -78.7248 33.5
      vertex -45 -78.7248 33.033
    endloop
  endfacet
  facet normal -0.707107 0 0.707107
    outer loop
      vertex -44.533 -78.7248 33.5
      vertex -45 -79.3248 33.033
      vertex -44.533 -79.3248 33.5
    endloop
  endfacet
  facet normal -0 -1 0
    outer loop
      vertex -44.533 -78.7248 33.5
      vertex -45 -78.7248 33.5
      vertex -45 -78.7248 33.033
    endloop
  endfacet
  facet normal 0.707107 0 -0.707107
    outer loop
      vertex -37.4619 -79.3248 33.5
      vertex -45 -78.7248 25.9619
      vertex -37.4619 -78.7248 33.5
    endloop
  endfacet
  facet normal 0.707107 0 -0.707107
    outer loop
      vertex -45 -78.7248 25.9619
      vertex -37.4619 -79.3248 33.5
      vertex -45 -79.3248 25.9619
    endloop
  endfacet
  facet normal -0.707107 0 0.707107
    outer loop
      vertex -30.3909 -78.7248 33.5
      vertex -40.8909 -79.3248 23
      vertex -30.3909 -79.3248 33.5
    endloop
  endfacet
  facet normal -0.707107 -2.12631e-06 0.707107
    outer loop
      vertex -40.8909 -79.3248 23
      vertex -30.3909 -78.7248 33.5
      vertex -41.4909 -78.7248 22.4
    endloop
  endfacet
  facet normal 0 -1 0
    outer loop
      vertex -41.4909 -78.7248 22.4
      vertex -37.4619 -78.7248 33.5
      vertex -45 -78.7248 25.9619
    endloop
  endfacet
  facet normal 0 -1 0
    outer loop
      vertex -41.4909 -78.7248 22.4
      vertex -45 -78.7248 25.9619
      vertex -45 -78.7248 22.4
    endloop
  endfacet
  facet normal 0 -1 -0
    outer loop
      vertex -37.4619 -78.7248 33.5
      vertex -41.4909 -78.7248 22.4
      vertex -30.3909 -78.7248 33.5
    endloop
  endfacet
  facet normal 0.707107 0 -0.707107
    outer loop
      vertex -33.8198 -79.3248 23
      vertex -23.3198 -78.7248 33.5
      vertex -23.3198 -79.3248 33.5
    endloop
  endfacet
  facet normal 0.707107 2.12631e-06 -0.707107
    outer loop
      vertex -23.3198 -78.7248 33.5
      vertex -33.8198 -79.3248 23
      vertex -34.4198 -78.7248 22.4
    endloop
  endfacet
  facet normal -0.707107 0 0.707107
    outer loop
      vertex -26.7487 -79.3248 23
      vertex -20 -78.7248 29.7487
      vertex -27.3487 -78.7248 22.4
    endloop
  endfacet
  facet normal -0.707107 0 0.707107
    outer loop
      vertex -20 -78.7248 29.7487
      vertex -26.7487 -79.3248 23
      vertex -20 -79.3248 29.7487
    endloop
  endfacet
  facet normal 0 -1 0
    outer loop
      vertex -23.3198 -78.7248 33.5
      vertex -20 -78.7248 33.033
      vertex -19.533 -78.7248 33.5
    endloop
  endfacet
  facet normal 0 -1 0
    outer loop
      vertex -23.3198 -78.7248 33.5
      vertex -20 -78.7248 29.7487
      vertex -20 -78.7248 33.033
    endloop
  endfacet
  facet normal 0 -1 0
    outer loop
      vertex -27.3487 -78.7248 22.4
      vertex -23.3198 -78.7248 33.5
      vertex -34.4198 -78.7248 22.4
    endloop
  endfacet
  facet normal 0 -1 -0
    outer loop
      vertex -23.3198 -78.7248 33.5
      vertex -27.3487 -78.7248 22.4
      vertex -20 -78.7248 29.7487
    endloop
  endfacet
  facet normal 0.707107 0 -0.707107
    outer loop
      vertex -9.17767 -79.3248 33.5
      vertex -18.6777 -78.7248 24
      vertex -9.17767 -78.7248 33.5
    endloop
  endfacet
  facet normal 0.707107 0 -0.707107
    outer loop
      vertex -18.6777 -78.7248 24
      vertex -9.17767 -79.3248 33.5
      vertex -18.6777 -79.3248 24
    endloop
  endfacet
  facet normal 0 -1 0
    outer loop
      vertex -14.8909 -78.7248 24
      vertex -9.17767 -78.7248 33.5
      vertex -18.6777 -78.7248 24
    endloop
  endfacet
  facet normal 0 -1 -0
    outer loop
      vertex -9.17767 -78.7248 33.5
      vertex -14.8909 -78.7248 24
      vertex -5.39087 -78.7248 33.5
    endloop
  endfacet
  facet normal -1 0 0
    outer loop
      vertex -20 -79.3248 29.7487
      vertex -20 -78.7248 33.033
      vertex -20 -78.7248 29.7487
    endloop
  endfacet
  facet normal -1 -0 0
    outer loop
      vertex -20 -78.7248 33.033
      vertex -20 -79.3248 29.7487
      vertex -20 -79.3248 33.033
    endloop
  endfacet
  facet normal 1 -0 0
    outer loop
      vertex 20 -79.3248 26.8198
      vertex 20 -78.7248 24
      vertex 20 -78.7248 26.8198
    endloop
  endfacet
  facet normal 1 0 0
    outer loop
      vertex 20 -78.7248 24
      vertex 20 -79.3248 26.8198
      vertex 20 -79.3248 24
    endloop
  endfacet
  facet normal -0.707107 0 0.707107
    outer loop
      vertex -20 -79.3248 33.033
      vertex -19.533 -78.7248 33.5
      vertex -20 -78.7248 33.033
    endloop
  endfacet
  facet normal -0.707107 0 0.707107
    outer loop
      vertex -19.533 -78.7248 33.5
      vertex -20 -79.3248 33.033
      vertex -19.533 -79.3248 33.5
    endloop
  endfacet
  facet normal -0.707107 0 0.707107
    outer loop
      vertex -14.8909 -79.3248 24
      vertex -5.39087 -78.7248 33.5
      vertex -14.8909 -78.7248 24
    endloop
  endfacet
  facet normal -0.707107 0 0.707107
    outer loop
      vertex -5.39087 -78.7248 33.5
      vertex -14.8909 -79.3248 24
      vertex -5.39087 -79.3248 33.5
    endloop
  endfacet
  facet normal 0.707107 0 -0.707107
    outer loop
      vertex 1.68019 -79.3248 33.5
      vertex -5 -78.7248 26.8198
      vertex 1.68019 -78.7248 33.5
    endloop
  endfacet
  facet normal 0.707107 0 -0.707107
    outer loop
      vertex -5 -78.7248 26.8198
      vertex 1.68019 -79.3248 33.5
      vertex -5 -79.3248 26.8198
    endloop
  endfacet
  facet normal -0.707107 0 0.707107
    outer loop
      vertex -0.748737 -79.3248 24
      vertex 5 -78.7248 29.7487
      vertex -0.748737 -78.7248 24
    endloop
  endfacet
  facet normal -0.707107 0 0.707107
    outer loop
      vertex 5 -78.7248 29.7487
      vertex -0.748737 -79.3248 24
      vertex 5 -79.3248 29.7487
    endloop
  endfacet
  facet normal 0.707107 0 -0.707107
    outer loop
      vertex 15.8223 -79.3248 33.5
      vertex 6.32233 -78.7248 24
      vertex 15.8223 -78.7248 33.5
    endloop
  endfacet
  facet normal 0.707107 0 -0.707107
    outer loop
      vertex 6.32233 -78.7248 24
      vertex 15.8223 -79.3248 33.5
      vertex 6.32233 -79.3248 24
    endloop
  endfacet
  facet normal -1 0 0
    outer loop
      vertex -73.763 -141.381 0
      vertex -73.763 6.14466 10.5
      vertex -73.763 6.14466 0
    endloop
  endfacet
  facet normal -1 -0 0
    outer loop
      vertex -73.763 6.14466 10.5
      vertex -73.763 -141.381 0
      vertex -73.763 -141.381 10.5
    endloop
  endfacet
  facet normal 0 0 1
    outer loop
      vertex -15.675 6.14466 10.5
      vertex -21 -44.5928 10.5
      vertex -15.675 -44.5928 10.5
    endloop
  endfacet
  facet normal 0 0 1
    outer loop
      vertex -45 -46.3248 10.5
      vertex -21 -44.5928 10.5
      vertex -15.675 6.14466 10.5
    endloop
  endfacet
  facet normal 0 0 1
    outer loop
      vertex -21 -44.5928 10.5
      vertex -45 -46.3248 10.5
      vertex -22 -46.3248 10.5
    endloop
  endfacet
  facet normal 0 0 1
    outer loop
      vertex -45 -46.3248 10.5
      vertex -73.763 6.14466 10.5
      vertex -45 -71.3248 10.5
    endloop
  endfacet
  facet normal -0 0 1
    outer loop
      vertex -73.763 6.14466 10.5
      vertex -45 -46.3248 10.5
      vertex -15.675 6.14466 10.5
    endloop
  endfacet
  facet normal 0 0 1
    outer loop
      vertex -22 -71.3248 10.5
      vertex -45 -71.3248 10.5
      vertex -22 -88.9119 10.5
    endloop
  endfacet
  facet normal 0 0 1
    outer loop
      vertex 45 -71.3248 10.5
      vertex 73.763 6.14466 10.5
      vertex 45 -46.3248 10.5
    endloop
  endfacet
  facet normal -0 0 1
    outer loop
      vertex 15.675 6.14466 10.5
      vertex 45 -46.3248 10.5
      vertex 73.763 6.14466 10.5
    endloop
  endfacet
  facet normal 0 0 1
    outer loop
      vertex 45 -46.3248 10.5
      vertex 21 -44.5928 10.5
      vertex 22 -46.3248 10.5
    endloop
  endfacet
  facet normal 0 0 1
    outer loop
      vertex 45 -46.3248 10.5
      vertex 15.675 6.14466 10.5
      vertex 21 -44.5928 10.5
    endloop
  endfacet
  facet normal 0 0 1
    outer loop
      vertex 21 -44.5928 10.5
      vertex 15.675 6.14466 10.5
      vertex 15.675 -44.5928 10.5
    endloop
  endfacet
  facet normal 0 0 1
    outer loop
      vertex 73.763 6.14466 10.5
      vertex 45 -71.3248 10.5
      vertex 73.763 -141.381 10.5
    endloop
  endfacet
  facet normal 0 0 1
    outer loop
      vertex 22 -88.9119 10.5
      vertex 45 -71.3248 10.5
      vertex 22 -71.3248 10.5
    endloop
  endfacet
  facet normal 0 0 1
    outer loop
      vertex 45 -71.3248 10.5
      vertex 22 -88.9119 10.5
      vertex 73.763 -141.381 10.5
    endloop
  endfacet
  facet normal -0 0 1
    outer loop
      vertex 21 -90.644 10.5
      vertex 73.763 -141.381 10.5
      vertex 22 -88.9119 10.5
    endloop
  endfacet
  facet normal -0 0 1
    outer loop
      vertex -21 -90.644 10.5
      vertex 73.763 -141.381 10.5
      vertex 21 -90.644 10.5
    endloop
  endfacet
  facet normal 0 0 1
    outer loop
      vertex -73.763 -141.381 10.5
      vertex -22 -88.9119 10.5
      vertex -45 -71.3248 10.5
    endloop
  endfacet
  facet normal 0 0 1
    outer loop
      vertex -21 -90.644 10.5
      vertex -73.763 -141.381 10.5
      vertex 73.763 -141.381 10.5
    endloop
  endfacet
  facet normal 0 0 1
    outer loop
      vertex -22 -88.9119 10.5
      vertex -73.763 -141.381 10.5
      vertex -21 -90.644 10.5
    endloop
  endfacet
  facet normal 0 0 1
    outer loop
      vertex -73.763 -141.381 10.5
      vertex -45 -71.3248 10.5
      vertex -73.763 6.14466 10.5
    endloop
  endfacet
  facet normal 1 -0 0
    outer loop
      vertex 73.763 -141.381 10.5
      vertex 73.763 6.14466 0
      vertex 73.763 6.14466 10.5
    endloop
  endfacet
  facet normal 1 0 0
    outer loop
      vertex 73.763 6.14466 0
      vertex 73.763 -141.381 10.5
      vertex 73.763 -141.381 0
    endloop
  endfacet
  facet normal 0 1 0
    outer loop
      vertex 73.763 6.14466 10.5
      vertex 15.675 6.14466 10
      vertex 15.675 6.14466 10.5
    endloop
  endfacet
  facet normal 0 1 0
    outer loop
      vertex 15.675 6.14466 10
      vertex 73.763 6.14466 0
      vertex -15.675 6.14466 10
    endloop
  endfacet
  facet normal 0 1 -0
    outer loop
      vertex 73.763 6.14466 0
      vertex 15.675 6.14466 10
      vertex 73.763 6.14466 10.5
    endloop
  endfacet
  facet normal 0 1 -0
    outer loop
      vertex -15.675 6.14466 10
      vertex -73.763 6.14466 10.5
      vertex -15.675 6.14466 10.5
    endloop
  endfacet
  facet normal 0 1 0
    outer loop
      vertex -73.763 6.14466 0
      vertex -15.675 6.14466 10
      vertex 73.763 6.14466 0
    endloop
  endfacet
  facet normal 0 1 0
    outer loop
      vertex -15.675 6.14466 10
      vertex -73.763 6.14466 0
      vertex -73.763 6.14466 10.5
    endloop
  endfacet
  facet normal 0 -1 0
    outer loop
      vertex -73.763 -141.381 0
      vertex 73.763 -141.381 10.5
      vertex -73.763 -141.381 10.5
    endloop
  endfacet
  facet normal 0 -1 -0
    outer loop
      vertex 73.763 -141.381 10.5
      vertex -73.763 -141.381 0
      vertex 73.763 -141.381 0
    endloop
  endfacet
  facet normal 1 -0 0
    outer loop
      vertex 22 -88.9119 0
      vertex 22 -46.3248 -12
      vertex 22 -46.3248 0
    endloop
  endfacet
  facet normal 1 0 0
    outer loop
      vertex 22 -46.3248 -12
      vertex 22 -88.9119 0
      vertex 22 -88.9119 -12
    endloop
  endfacet
  facet normal 1 0 0
    outer loop
      vertex 22 -78.7248 24
      vertex 22 -88.9119 24
      vertex 22 -78.7248 22.4
    endloop
  endfacet
  facet normal 1 0 0
    outer loop
      vertex 22 -88.9119 10.5
      vertex 22 -71.3248 15
      vertex 22 -78.7248 22.4
    endloop
  endfacet
  facet normal 1 0 0
    outer loop
      vertex 22 -88.9119 10.5
      vertex 22 -78.7248 22.4
      vertex 22 -88.9119 24
    endloop
  endfacet
  facet normal 1 0 0
    outer loop
      vertex 22 -71.3248 15
      vertex 22 -88.9119 10.5
      vertex 22 -71.3248 10.5
    endloop
  endfacet
  facet normal 1 0 0
    outer loop
      vertex 22 -46.3248 24
      vertex 22 -58.3248 24
      vertex 22 -46.3248 12
    endloop
  endfacet
  facet normal 0.866025 -0.500001 0
    outer loop
      vertex 21 -90.644 0
      vertex 22 -88.9119 -12
      vertex 22 -88.9119 0
    endloop
  endfacet
  facet normal 0.866025 -0.500001 0
    outer loop
      vertex 22 -88.9119 -12
      vertex 21 -90.644 0
      vertex 21 -90.644 -12
    endloop
  endfacet
  facet normal 0.866025 -0.500001 0
    outer loop
      vertex 21 -90.644 24
      vertex 22 -88.9119 10.5
      vertex 22 -88.9119 24
    endloop
  endfacet
  facet normal 0.866025 -0.500001 0
    outer loop
      vertex 22 -88.9119 10.5
      vertex 21 -90.644 24
      vertex 21 -90.644 10.5
    endloop
  endfacet
  facet normal -0.866025 -0.500001 0
    outer loop
      vertex -21 -90.644 -12
      vertex -22 -88.9119 0
      vertex -22 -88.9119 -12
    endloop
  endfacet
  facet normal -0.866025 -0.500001 0
    outer loop
      vertex -22 -88.9119 0
      vertex -21 -90.644 -12
      vertex -21 -90.644 0
    endloop
  endfacet
  facet normal -0.866025 -0.500001 0
    outer loop
      vertex -21 -90.644 10.5
      vertex -22 -88.9119 24
      vertex -22 -88.9119 10.5
    endloop
  endfacet
  facet normal -0.866025 -0.500001 0
    outer loop
      vertex -22 -88.9119 24
      vertex -21 -90.644 10.5
      vertex -21 -90.644 24
    endloop
  endfacet
  facet normal 0 0 -1
    outer loop
      vertex -22 -88.9119 -12
      vertex 22 -88.9119 -12
      vertex 21 -90.644 -12
    endloop
  endfacet
  facet normal 0 0 -1
    outer loop
      vertex 22 -88.9119 -12
      vertex -22 -88.9119 -12
      vertex 22 -46.3248 -12
    endloop
  endfacet
  facet normal 0 0 -1
    outer loop
      vertex 22 -46.3248 -12
      vertex -22 -46.3248 -12
      vertex 21 -44.5928 -12
    endloop
  endfacet
  facet normal 0 0 -1
    outer loop
      vertex -22 -88.9119 -12
      vertex 21 -90.644 -12
      vertex -21 -90.644 -12
    endloop
  endfacet
  facet normal -0 0 -1
    outer loop
      vertex 22 -46.3248 -12
      vertex -22 -88.9119 -12
      vertex -22 -46.3248 -12
    endloop
  endfacet
  facet normal -0 0 -1
    outer loop
      vertex 21 -44.5928 -12
      vertex -22 -46.3248 -12
      vertex -21 -44.5928 -12
    endloop
  endfacet
  facet normal -0.866025 0.500001 0
    outer loop
      vertex -22 -46.3248 -12
      vertex -21 -44.5928 0
      vertex -21 -44.5928 -12
    endloop
  endfacet
  facet normal -0.866025 0.500001 0
    outer loop
      vertex -21 -44.5928 0
      vertex -22 -46.3248 -12
      vertex -22 -46.3248 0
    endloop
  endfacet
  facet normal -0.866025 0.500001 -1.10121e-06
    outer loop
      vertex -22 -46.3248 12
      vertex -21 -44.5928 10.5
      vertex -22 -46.3248 10.5
    endloop
  endfacet
  facet normal -0.866025 0.500001 0
    outer loop
      vertex -21 -44.5928 10.5
      vertex -22 -46.3248 12
      vertex -21 -44.5928 24
    endloop
  endfacet
  facet normal -0.866025 0.500001 0
    outer loop
      vertex -21 -44.5928 24
      vertex -22 -46.3248 12
      vertex -22 -46.3248 24
    endloop
  endfacet
  facet normal 0 1 -0
    outer loop
      vertex 21 -44.5928 -12
      vertex -21 -44.5928 0
      vertex 21 -44.5928 0
    endloop
  endfacet
  facet normal 0 1 0
    outer loop
      vertex -21 -44.5928 0
      vertex 21 -44.5928 -12
      vertex -21 -44.5928 -12
    endloop
  endfacet
  facet normal 0 1 0
    outer loop
      vertex 21 -44.5928 24
      vertex 15.675 -44.5928 22
      vertex -21 -44.5928 24
    endloop
  endfacet
  facet normal 0 1 -0
    outer loop
      vertex 21 -44.5928 10.5
      vertex 15.675 -44.5928 22
      vertex 21 -44.5928 24
    endloop
  endfacet
  facet normal 0 1 0
    outer loop
      vertex 15.675 -44.5928 22
      vertex 21 -44.5928 10.5
      vertex 15.675 -44.5928 10.5
    endloop
  endfacet
  facet normal 0 1 -0
    outer loop
      vertex -15.675 -44.5928 22
      vertex -21 -44.5928 24
      vertex 15.675 -44.5928 22
    endloop
  endfacet
  facet normal 0 1 0
    outer loop
      vertex -21 -44.5928 10.5
      vertex -15.675 -44.5928 22
      vertex -15.675 -44.5928 10.5
    endloop
  endfacet
  facet normal 0 1 0
    outer loop
      vertex -15.675 -44.5928 22
      vertex -21 -44.5928 10.5
      vertex -21 -44.5928 24
    endloop
  endfacet
  facet normal 0.866025 0.500001 0
    outer loop
      vertex 22 -46.3248 0
      vertex 21 -44.5928 -12
      vertex 21 -44.5928 0
    endloop
  endfacet
  facet normal 0.866025 0.500001 0
    outer loop
      vertex 21 -44.5928 -12
      vertex 22 -46.3248 0
      vertex 22 -46.3248 -12
    endloop
  endfacet
  facet normal 0.866025 0.500001 -0
    outer loop
      vertex 22 -46.3248 12
      vertex 21 -44.5928 24
      vertex 22 -46.3248 24
    endloop
  endfacet
  facet normal 0.866025 0.500001 0
    outer loop
      vertex 21 -44.5928 24
      vertex 22 -46.3248 12
      vertex 21 -44.5928 10.5
    endloop
  endfacet
  facet normal 0.866025 0.500001 0
    outer loop
      vertex 21 -44.5928 10.5
      vertex 22 -46.3248 12
      vertex 22 -46.3248 10.5
    endloop
  endfacet
  facet normal 0 -1 0
    outer loop
      vertex -21 -90.644 10.5
      vertex 21 -90.644 24
      vertex -21 -90.644 24
    endloop
  endfacet
  facet normal 0 -1 -0
    outer loop
      vertex 21 -90.644 24
      vertex -21 -90.644 10.5
      vertex 21 -90.644 10.5
    endloop
  endfacet
  facet normal 0 -1 0
    outer loop
      vertex -21 -90.644 -12
      vertex 21 -90.644 0
      vertex -21 -90.644 0
    endloop
  endfacet
  facet normal 0 -1 -0
    outer loop
      vertex 21 -90.644 0
      vertex -21 -90.644 -12
      vertex 21 -90.644 -12
    endloop
  endfacet
  facet normal 0 0 1
    outer loop
      vertex -14.8909 -78.7248 24
      vertex -18.6777 -78.7248 24
      vertex -14.8909 -79.3248 24
    endloop
  endfacet
  facet normal 0 0 1
    outer loop
      vertex -0.748737 -78.7248 24
      vertex -5 -78.7248 24
      vertex -0.748737 -79.3248 24
    endloop
  endfacet
  facet normal 0 0 1
    outer loop
      vertex 10.1091 -78.7248 24
      vertex 6.32233 -78.7248 24
      vertex 10.1091 -79.3248 24
    endloop
  endfacet
  facet normal -0 0 1
    outer loop
      vertex 20 -79.3248 24
      vertex 22 -88.9119 24
      vertex 22 -78.7248 24
    endloop
  endfacet
  facet normal 0 0 1
    outer loop
      vertex 20 -79.3248 24
      vertex 22 -78.7248 24
      vertex 20 -78.7248 24
    endloop
  endfacet
  facet normal -0 0 1
    outer loop
      vertex 10.1091 -79.3248 24
      vertex 22 -88.9119 24
      vertex 20 -79.3248 24
    endloop
  endfacet
  facet normal 0 0 1
    outer loop
      vertex 22 -88.9119 24
      vertex 10.1091 -79.3248 24
      vertex 21 -90.644 24
    endloop
  endfacet
  facet normal 0 0 1
    outer loop
      vertex 6.32233 -79.3248 24
      vertex 10.1091 -79.3248 24
      vertex 6.32233 -78.7248 24
    endloop
  endfacet
  facet normal 0 0 1
    outer loop
      vertex 10.1091 -79.3248 24
      vertex 6.32233 -79.3248 24
      vertex 21 -90.644 24
    endloop
  endfacet
  facet normal -0 0 1
    outer loop
      vertex -0.748737 -79.3248 24
      vertex 21 -90.644 24
      vertex 6.32233 -79.3248 24
    endloop
  endfacet
  facet normal 0 0 1
    outer loop
      vertex -5 -79.3248 24
      vertex -0.748737 -79.3248 24
      vertex -5 -78.7248 24
    endloop
  endfacet
  facet normal 0 0 1
    outer loop
      vertex -21 -90.644 24
      vertex -0.748737 -79.3248 24
      vertex -5 -79.3248 24
    endloop
  endfacet
  facet normal 0 0 1
    outer loop
      vertex -21 -90.644 24
      vertex -5 -79.3248 24
      vertex -14.8909 -79.3248 24
    endloop
  endfacet
  facet normal 0 0 1
    outer loop
      vertex -18.6777 -79.3248 24
      vertex -14.8909 -79.3248 24
      vertex -18.6777 -78.7248 24
    endloop
  endfacet
  facet normal 0 0 1
    outer loop
      vertex -22 -88.9119 24
      vertex -14.8909 -79.3248 24
      vertex -18.6777 -79.3248 24
    endloop
  endfacet
  facet normal 0 0 1
    outer loop
      vertex -0.748737 -79.3248 24
      vertex -21 -90.644 24
      vertex 21 -90.644 24
    endloop
  endfacet
  facet normal 0 0 1
    outer loop
      vertex -22 -88.9119 24
      vertex -18.6777 -79.3248 24
      vertex -22 -79.3248 24
    endloop
  endfacet
  facet normal 0 0 1
    outer loop
      vertex -14.8909 -79.3248 24
      vertex -22 -88.9119 24
      vertex -21 -90.644 24
    endloop
  endfacet
  facet normal 0 0 1
    outer loop
      vertex 21 -44.5928 24
      vertex 22 -58.3248 24
      vertex 22 -46.3248 24
    endloop
  endfacet
  facet normal -0 0 1
    outer loop
      vertex -21 -44.5928 24
      vertex 22 -58.3248 24
      vertex 21 -44.5928 24
    endloop
  endfacet
  facet normal 0 0 1
    outer loop
      vertex -22 -58.3248 24
      vertex -21 -44.5928 24
      vertex -22 -46.3248 24
    endloop
  endfacet
  facet normal 0 0 1
    outer loop
      vertex -21 -44.5928 24
      vertex -22 -58.3248 24
      vertex 22 -58.3248 24
    endloop
  endfacet
  facet normal -1 0 0
    outer loop
      vertex -22 -88.9119 -12
      vertex -22 -46.3248 0
      vertex -22 -46.3248 -12
    endloop
  endfacet
  facet normal -1 -0 0
    outer loop
      vertex -22 -46.3248 0
      vertex -22 -88.9119 -12
      vertex -22 -88.9119 0
    endloop
  endfacet
  facet normal -1 0 0
    outer loop
      vertex -22 -88.9119 10.5
      vertex -22 -71.3248 15
      vertex -22 -71.3248 10.5
    endloop
  endfacet
  facet normal -1 -0 0
    outer loop
      vertex -22 -71.3248 15
      vertex -22 -88.9119 10.5
      vertex -22 -79.3248 23
    endloop
  endfacet
  facet normal -1 0 0
    outer loop
      vertex -22 -88.9119 24
      vertex -22 -79.3248 23
      vertex -22 -88.9119 10.5
    endloop
  endfacet
  facet normal -1 0 0
    outer loop
      vertex -22 -79.3248 23
      vertex -22 -88.9119 24
      vertex -22 -79.3248 24
    endloop
  endfacet
  facet normal -1 0 0
    outer loop
      vertex -22 -46.3248 12
      vertex -22 -58.3248 24
      vertex -22 -46.3248 24
    endloop
  endfacet
  facet normal 1 -0 0
    outer loop
      vertex -1 -88.9219 10
      vertex -1 -74.4996 9
      vertex -1 -74.4996 10
    endloop
  endfacet
  facet normal 1 0 0
    outer loop
      vertex -1 -74.4996 9
      vertex -1 -88.9219 10
      vertex -1 -88.9219 9
    endloop
  endfacet
  facet normal -1 0 0
    outer loop
      vertex 1 -88.9219 9
      vertex 1 -74.4996 10
      vertex 1 -74.4996 9
    endloop
  endfacet
  facet normal -1 -0 0
    outer loop
      vertex 1 -74.4996 10
      vertex 1 -88.9219 9
      vertex 1 -88.9219 10
    endloop
  endfacet
  facet normal 0 -1 0
    outer loop
      vertex -1 -74.4996 9
      vertex 1 -74.4996 10
      vertex -1 -74.4996 10
    endloop
  endfacet
  facet normal 0 -1 -0
    outer loop
      vertex 1 -74.4996 10
      vertex -1 -74.4996 9
      vertex 1 -74.4996 9
    endloop
  endfacet
  facet normal -0 0 1
    outer loop
      vertex -1 -74.4996 9
      vertex 1 -88.9219 9
      vertex 1 -74.4996 9
    endloop
  endfacet
  facet normal 0 0 1
    outer loop
      vertex 1 -88.9219 9
      vertex -1 -74.4996 9
      vertex -1 -88.9219 9
    endloop
  endfacet
  facet normal 1 -0 0
    outer loop
      vertex -1 -46.3248 10
      vertex -1 -41.3886 9
      vertex -1 -41.3886 10
    endloop
  endfacet
  facet normal 1 0 0
    outer loop
      vertex -1 -41.3886 9
      vertex -1 -46.3248 10
      vertex -1 -46.3248 9
    endloop
  endfacet
  facet normal -1 0 0
    outer loop
      vertex 1 -46.3248 9
      vertex 1 -41.3886 10
      vertex 1 -41.3886 9
    endloop
  endfacet
  facet normal -1 -0 0
    outer loop
      vertex 1 -41.3886 10
      vertex 1 -46.3248 9
      vertex 1 -46.3248 10
    endloop
  endfacet
  facet normal -0 0 1
    outer loop
      vertex -1 -41.3886 9
      vertex 1 -46.3248 9
      vertex 1 -41.3886 9
    endloop
  endfacet
  facet normal 0 0 1
    outer loop
      vertex 1 -46.3248 9
      vertex -1 -41.3886 9
      vertex -1 -46.3248 9
    endloop
  endfacet
  facet normal 0 -1 0
    outer loop
      vertex -1 -41.3886 9
      vertex 1 -41.3886 10
      vertex -1 -41.3886 10
    endloop
  endfacet
  facet normal 0 -1 -0
    outer loop
      vertex 1 -41.3886 10
      vertex -1 -41.3886 9
      vertex 1 -41.3886 9
    endloop
  endfacet
  facet normal 1 -0 0
    outer loop
      vertex -1 -24.8332 10
      vertex -1 -8.27773 9
      vertex -1 -8.27773 10
    endloop
  endfacet
  facet normal 1 0 0
    outer loop
      vertex -1 -8.27773 9
      vertex -1 -24.8332 10
      vertex -1 -24.8332 9
    endloop
  endfacet
  facet normal -1 0 0
    outer loop
      vertex 1 -24.8332 9
      vertex 1 -8.27773 10
      vertex 1 -8.27773 9
    endloop
  endfacet
  facet normal -1 -0 0
    outer loop
      vertex 1 -8.27773 10
      vertex 1 -24.8332 9
      vertex 1 -24.8332 10
    endloop
  endfacet
  facet normal 0 -1 0
    outer loop
      vertex -1 -8.27773 9
      vertex 1 -8.27773 10
      vertex -1 -8.27773 10
    endloop
  endfacet
  facet normal 0 -1 -0
    outer loop
      vertex 1 -8.27773 10
      vertex -1 -8.27773 9
      vertex 1 -8.27773 9
    endloop
  endfacet
  facet normal -0 0 1
    outer loop
      vertex -1 -8.27773 9
      vertex 1 -24.8332 9
      vertex 1 -8.27773 9
    endloop
  endfacet
  facet normal 0 0 1
    outer loop
      vertex 1 -24.8332 9
      vertex -1 -8.27773 9
      vertex -1 -24.8332 9
    endloop
  endfacet
  facet normal 0 1 -0
    outer loop
      vertex 1 -24.8332 9
      vertex -1 -24.8332 10
      vertex 1 -24.8332 10
    endloop
  endfacet
  facet normal 0 1 0
    outer loop
      vertex -1 -24.8332 10
      vertex 1 -24.8332 9
      vertex -1 -24.8332 9
    endloop
  endfacet
  facet normal 1 -0 0
    outer loop
      vertex -15.675 -89.9119 22
      vertex -15.675 -88.9219 18
      vertex -15.675 -78.3248 22
    endloop
  endfacet
  facet normal 1 0 0
    outer loop
      vertex -15.675 -88.9219 18
      vertex -15.675 -89.9119 22
      vertex -15.675 -89.9119 18
    endloop
  endfacet
  facet normal 1 0 0
    outer loop
      vertex -15.675 -88.9219 10
      vertex -15.675 -71.3248 15
      vertex -15.675 -78.3248 22
    endloop
  endfacet
  facet normal 1 0 0
    outer loop
      vertex -15.675 -88.9219 10
      vertex -15.675 -78.3248 22
      vertex -15.675 -88.9219 18
    endloop
  endfacet
  facet normal 1 0 0
    outer loop
      vertex -15.675 -71.3248 15
      vertex -15.675 -88.9219 10
      vertex -15.675 -71.3248 10
    endloop
  endfacet
  facet normal 1 0 0
    outer loop
      vertex -15.675 -44.5928 22
      vertex -15.675 -46.3248 12
      vertex -15.675 -44.5928 10.5
    endloop
  endfacet
  facet normal 1 0 -0
    outer loop
      vertex -15.675 -46.3248 12
      vertex -15.675 -44.5928 22
      vertex -15.675 -56.3248 22
    endloop
  endfacet
  facet normal 1 -0 0
    outer loop
      vertex -15.675 -44.5928 10.5
      vertex -15.675 6.14466 10
      vertex -15.675 6.14466 10.5
    endloop
  endfacet
  facet normal 1 0 0
    outer loop
      vertex -15.675 -44.5928 10.5
      vertex -15.675 -46.3248 10
      vertex -15.675 6.14466 10
    endloop
  endfacet
  facet normal 1 0 0
    outer loop
      vertex -15.675 -46.3248 10
      vertex -15.675 -44.5928 10.5
      vertex -15.675 -46.3248 12
    endloop
  endfacet
  facet normal 0 0 -1
    outer loop
      vertex -15.675 -89.9119 22
      vertex 15.675 -78.3248 22
      vertex 15.675 -89.9119 22
    endloop
  endfacet
  facet normal -0 0 -1
    outer loop
      vertex 15.675 -78.3248 22
      vertex -15.675 -89.9119 22
      vertex -15.675 -78.3248 22
    endloop
  endfacet
  facet normal 0 0 -1
    outer loop
      vertex -15.675 -56.3248 22
      vertex 15.675 -44.5928 22
      vertex 15.675 -56.3248 22
    endloop
  endfacet
  facet normal -0 0 -1
    outer loop
      vertex 15.675 -44.5928 22
      vertex -15.675 -56.3248 22
      vertex -15.675 -44.5928 22
    endloop
  endfacet
  facet normal -1 0 0
    outer loop
      vertex 15.675 -88.9219 10
      vertex 15.675 -71.3248 15
      vertex 15.675 -71.3248 10
    endloop
  endfacet
  facet normal -1 -0 0
    outer loop
      vertex 15.675 -71.3248 15
      vertex 15.675 -88.9219 10
      vertex 15.675 -78.3248 22
    endloop
  endfacet
  facet normal -1 0 0
    outer loop
      vertex 15.675 -88.9219 18
      vertex 15.675 -78.3248 22
      vertex 15.675 -88.9219 10
    endloop
  endfacet
  facet normal -1 0 0
    outer loop
      vertex 15.675 -89.9119 22
      vertex 15.675 -88.9219 18
      vertex 15.675 -89.9119 18
    endloop
  endfacet
  facet normal -1 0 0
    outer loop
      vertex 15.675 -88.9219 18
      vertex 15.675 -89.9119 22
      vertex 15.675 -78.3248 22
    endloop
  endfacet
  facet normal -1 0 0
    outer loop
      vertex 15.675 6.14466 10
      vertex 15.675 -44.5928 10.5
      vertex 15.675 6.14466 10.5
    endloop
  endfacet
  facet normal -1 0 0
    outer loop
      vertex 15.675 -46.3248 10
      vertex 15.675 -44.5928 10.5
      vertex 15.675 6.14466 10
    endloop
  endfacet
  facet normal -1 0 0
    outer loop
      vertex 15.675 -46.3248 12
      vertex 15.675 -44.5928 10.5
      vertex 15.675 -46.3248 10
    endloop
  endfacet
  facet normal -1 0 0
    outer loop
      vertex 15.675 -44.5928 10.5
      vertex 15.675 -46.3248 12
      vertex 15.675 -44.5928 22
    endloop
  endfacet
  facet normal -1 -0 0
    outer loop
      vertex 15.675 -44.5928 22
      vertex 15.675 -46.3248 12
      vertex 15.675 -56.3248 22
    endloop
  endfacet
  facet normal -0 0 1
    outer loop
      vertex -1 -24.8332 10
      vertex 1 -41.3886 10
      vertex 1 -24.8332 10
    endloop
  endfacet
  facet normal 0 0 1
    outer loop
      vertex 1 -41.3886 10
      vertex -1 -24.8332 10
      vertex -1 -41.3886 10
    endloop
  endfacet
  facet normal 0 0 1
    outer loop
      vertex 1 -24.8332 10
      vertex 15.675 6.14466 10
      vertex 1 -8.27773 10
    endloop
  endfacet
  facet normal 0 0 1
    outer loop
      vertex 15.675 6.14466 10
      vertex -1 -8.27773 10
      vertex 1 -8.27773 10
    endloop
  endfacet
  facet normal 0 0 1
    outer loop
      vertex -15.675 6.14466 10
      vertex -1 -24.8332 10
      vertex -1 -8.27773 10
    endloop
  endfacet
  facet normal 0 0 1
    outer loop
      vertex -1 -24.8332 10
      vertex -15.675 -46.3248 10
      vertex -1 -41.3886 10
    endloop
  endfacet
  facet normal -0 0 1
    outer loop
      vertex -15.675 6.14466 10
      vertex -1 -8.27773 10
      vertex 15.675 6.14466 10
    endloop
  endfacet
  facet normal 0 0 1
    outer loop
      vertex -1 -24.8332 10
      vertex -15.675 6.14466 10
      vertex -15.675 -46.3248 10
    endloop
  endfacet
  facet normal 0 0 1
    outer loop
      vertex -1 -41.3886 10
      vertex -15.675 -46.3248 10
      vertex -1 -46.3248 10
    endloop
  endfacet
  facet normal 0 0 1
    outer loop
      vertex 15.675 6.14466 10
      vertex 1 -24.8332 10
      vertex 15.675 -46.3248 10
    endloop
  endfacet
  facet normal -0 0 1
    outer loop
      vertex 1 -41.3886 10
      vertex 15.675 -46.3248 10
      vertex 1 -24.8332 10
    endloop
  endfacet
  facet normal 0 0 1
    outer loop
      vertex 15.675 -46.3248 10
      vertex 1 -41.3886 10
      vertex 1 -46.3248 10
    endloop
  endfacet
  facet normal 0 0 1
    outer loop
      vertex 15.675 -71.3248 10
      vertex 1 -74.4996 10
      vertex 15.675 -88.9219 10
    endloop
  endfacet
  facet normal 0 0 1
    outer loop
      vertex 15.675 -71.3248 10
      vertex -1 -74.4996 10
      vertex 1 -74.4996 10
    endloop
  endfacet
  facet normal -0 0 1
    outer loop
      vertex -15.675 -71.3248 10
      vertex -1 -74.4996 10
      vertex 15.675 -71.3248 10
    endloop
  endfacet
  facet normal 0 0 1
    outer loop
      vertex -15.675 -88.9219 10
      vertex -1 -74.4996 10
      vertex -15.675 -71.3248 10
    endloop
  endfacet
  facet normal 0 0 1
    outer loop
      vertex -1 -74.4996 10
      vertex -15.675 -88.9219 10
      vertex -1 -88.9219 10
    endloop
  endfacet
  facet normal 0 0 1
    outer loop
      vertex 15.675 -88.9219 10
      vertex 1 -74.4996 10
      vertex 1 -88.9219 10
    endloop
  endfacet
  facet normal 0 1 -0
    outer loop
      vertex 15.675 -89.9119 18
      vertex -15.675 -89.9119 22
      vertex 15.675 -89.9119 22
    endloop
  endfacet
  facet normal 0 1 0
    outer loop
      vertex -15.675 -89.9119 22
      vertex 15.675 -89.9119 18
      vertex -15.675 -89.9119 18
    endloop
  endfacet
  facet normal -0 0 1
    outer loop
      vertex -15.675 -88.9219 18
      vertex 15.675 -89.9119 18
      vertex 15.675 -88.9219 18
    endloop
  endfacet
  facet normal 0 0 1
    outer loop
      vertex 15.675 -89.9119 18
      vertex -15.675 -88.9219 18
      vertex -15.675 -89.9119 18
    endloop
  endfacet
  facet normal 0 1 -0
    outer loop
      vertex 1 -88.9219 9
      vertex -1 -88.9219 10
      vertex 1 -88.9219 10
    endloop
  endfacet
  facet normal 0 1 0
    outer loop
      vertex -1 -88.9219 10
      vertex 1 -88.9219 9
      vertex -1 -88.9219 9
    endloop
  endfacet
  facet normal 0 1 0
    outer loop
      vertex 1 -88.9219 10
      vertex 15.675 -88.9219 18
      vertex 15.675 -88.9219 10
    endloop
  endfacet
  facet normal 0 1 0
    outer loop
      vertex 15.675 -88.9219 18
      vertex 1 -88.9219 10
      vertex -15.675 -88.9219 18
    endloop
  endfacet
  facet normal 0 1 -0
    outer loop
      vertex -1 -88.9219 10
      vertex -15.675 -88.9219 18
      vertex 1 -88.9219 10
    endloop
  endfacet
  facet normal 0 1 0
    outer loop
      vertex -15.675 -88.9219 18
      vertex -1 -88.9219 10
      vertex -15.675 -88.9219 10
    endloop
  endfacet
endsolid OpenSCAD_Model
