solid OpenSCAD_Model
  facet normal 1 -0 0
    outer loop
      vertex 20 -31 69.5
      vertex 20 31 63
      vertex 20 31 69.5
    endloop
  endfacet
  facet normal 1 0 0
    outer loop
      vertex 20 31 63
      vertex 20 -31 69.5
      vertex 20 -31 63
    endloop
  endfacet
  facet normal 0 0 -1
    outer loop
      vertex 20 -31 69.5
      vertex 24 31 69.5
      vertex 24 -31 69.5
    endloop
  endfacet
  facet normal -0 0 -1
    outer loop
      vertex 24 31 69.5
      vertex 20 -31 69.5
      vertex 20 31 69.5
    endloop
  endfacet
  facet normal -1 0 0
    outer loop
      vertex 24 -31 63
      vertex 24 31 69.5
      vertex 24 31 63
    endloop
  endfacet
  facet normal -1 -0 0
    outer loop
      vertex 24 31 69.5
      vertex 24 -31 63
      vertex 24 -31 69.5
    endloop
  endfacet
  facet normal 0 -1 0
    outer loop
      vertex 20 31 63
      vertex 24 31 69.5
      vertex 20 31 69.5
    endloop
  endfacet
  facet normal 0 -1 -0
    outer loop
      vertex 24 31 69.5
      vertex 20 31 63
      vertex 24 31 63
    endloop
  endfacet
  facet normal 0 1 -0
    outer loop
      vertex 24 -31 63
      vertex 20 -31 69.5
      vertex 24 -31 69.5
    endloop
  endfacet
  facet normal 0 1 0
    outer loop
      vertex 20 -31 69.5
      vertex 24 -31 63
      vertex 20 -31 63
    endloop
  endfacet
  facet normal 0 0 -1
    outer loop
      vertex -24 -31 69.5
      vertex -20 31 69.5
      vertex -20 -31 69.5
    endloop
  endfacet
  facet normal -0 0 -1
    outer loop
      vertex -20 31 69.5
      vertex -24 -31 69.5
      vertex -24 31 69.5
    endloop
  endfacet
  facet normal 1 -0 0
    outer loop
      vertex -24 -31 69.5
      vertex -24 31 63
      vertex -24 31 69.5
    endloop
  endfacet
  facet normal 1 0 0
    outer loop
      vertex -24 31 63
      vertex -24 -31 69.5
      vertex -24 -31 63
    endloop
  endfacet
  facet normal 0 -1 0
    outer loop
      vertex -24 31 63
      vertex -20 31 69.5
      vertex -24 31 69.5
    endloop
  endfacet
  facet normal 0 -1 -0
    outer loop
      vertex -20 31 69.5
      vertex -24 31 63
      vertex -20 31 63
    endloop
  endfacet
  facet normal -1 0 0
    outer loop
      vertex -20 -31 63
      vertex -20 31 69.5
      vertex -20 31 63
    endloop
  endfacet
  facet normal -1 -0 0
    outer loop
      vertex -20 31 69.5
      vertex -20 -31 63
      vertex -20 -31 69.5
    endloop
  endfacet
  facet normal 0 1 -0
    outer loop
      vertex -20 -31 63
      vertex -24 -31 69.5
      vertex -20 -31 69.5
    endloop
  endfacet
  facet normal 0 1 0
    outer loop
      vertex -24 -31 69.5
      vertex -20 -31 63
      vertex -24 -31 63
    endloop
  endfacet
  facet normal -1 0 0
    outer loop
      vertex -26 -32.5 63
      vertex -26 32.5 70
      vertex -26 32.5 63
    endloop
  endfacet
  facet normal -1 -0 0
    outer loop
      vertex -26 32.5 70
      vertex -26 -32.5 63
      vertex -26 -32.5 70
    endloop
  endfacet
  facet normal -0 0 1
    outer loop
      vertex -26 32.5 70
      vertex 26 -32.5 70
      vertex 26 32.5 70
    endloop
  endfacet
  facet normal 0 0 1
    outer loop
      vertex 26 -32.5 70
      vertex -26 32.5 70
      vertex -26 -32.5 70
    endloop
  endfacet
  facet normal 1 -0 0
    outer loop
      vertex 26 -32.5 70
      vertex 26 32.5 63
      vertex 26 32.5 70
    endloop
  endfacet
  facet normal 1 0 0
    outer loop
      vertex 26 32.5 63
      vertex 26 -32.5 70
      vertex 26 -32.5 63
    endloop
  endfacet
  facet normal 0 1 -0
    outer loop
      vertex 26 32.5 63
      vertex -26 32.5 70
      vertex 26 32.5 70
    endloop
  endfacet
  facet normal 0 1 0
    outer loop
      vertex -26 32.5 70
      vertex 26 32.5 63
      vertex -26 32.5 63
    endloop
  endfacet
  facet normal 0 0 -1
    outer loop
      vertex 26 -32.5 63
      vertex 24 -31 63
      vertex 26 32.5 63
    endloop
  endfacet
  facet normal 0 0 -1
    outer loop
      vertex 26 -32.5 63
      vertex 20 -31 63
      vertex 24 -31 63
    endloop
  endfacet
  facet normal 0 0 -1
    outer loop
      vertex 20 -31 63
      vertex -20 -31 63
      vertex 20 31 63
    endloop
  endfacet
  facet normal 0 0 -1
    outer loop
      vertex 26 -32.5 63
      vertex -20 -31 63
      vertex 20 -31 63
    endloop
  endfacet
  facet normal 0 0 -1
    outer loop
      vertex -26 -32.5 63
      vertex -20 -31 63
      vertex 26 -32.5 63
    endloop
  endfacet
  facet normal -0 0 -1
    outer loop
      vertex -24 -31 63
      vertex -26 -32.5 63
      vertex -24 31 63
    endloop
  endfacet
  facet normal -0 0 -1
    outer loop
      vertex -20 -31 63
      vertex -26 -32.5 63
      vertex -24 -31 63
    endloop
  endfacet
  facet normal 0 0 -1
    outer loop
      vertex 24 31 63
      vertex 26 32.5 63
      vertex 24 -31 63
    endloop
  endfacet
  facet normal 0 0 -1
    outer loop
      vertex 20 31 63
      vertex 26 32.5 63
      vertex 24 31 63
    endloop
  endfacet
  facet normal 0 0 -1
    outer loop
      vertex -20 31 63
      vertex 20 31 63
      vertex -20 -31 63
    endloop
  endfacet
  facet normal 0 0 -1
    outer loop
      vertex -20 31 63
      vertex 26 32.5 63
      vertex 20 31 63
    endloop
  endfacet
  facet normal 0 0 -1
    outer loop
      vertex -26 32.5 63
      vertex -20 31 63
      vertex -24 31 63
    endloop
  endfacet
  facet normal 0 0 -1
    outer loop
      vertex -20 31 63
      vertex -26 32.5 63
      vertex 26 32.5 63
    endloop
  endfacet
  facet normal 0 0 -1
    outer loop
      vertex -26 32.5 63
      vertex -24 31 63
      vertex -26 -32.5 63
    endloop
  endfacet
  facet normal 0 -1 0
    outer loop
      vertex -26 -32.5 63
      vertex 26 -32.5 70
      vertex -26 -32.5 70
    endloop
  endfacet
  facet normal 0 -1 -0
    outer loop
      vertex 26 -32.5 70
      vertex -26 -32.5 63
      vertex 26 -32.5 63
    endloop
  endfacet
endsolid OpenSCAD_Model
